<?xml version="1.0" encoding="UTF-8" standalone="no"?>
<!DOCTYPE svg PUBLIC "-//W3C//DTD SVG 1.1//EN"
 "http://www.w3.org/Graphics/SVG/1.1/DTD/svg11.dtd">
<!-- Generated by graphviz version 2.43.0 (0)
 -->
<!-- Title: G Pages: 1 -->
<svg width="411pt" height="83pt"
 viewBox="0.00 0.00 410.51 83.26" xmlns="http://www.w3.org/2000/svg" xmlns:xlink="http://www.w3.org/1999/xlink">
<g id="graph0" class="graph" transform="scale(1 1) rotate(0) translate(4 79.26)">
<title>G</title>
<polygon fill="white" stroke="transparent" points="-4,4 -4,-79.26 406.51,-79.26 406.51,4 -4,4"/>
<text text-anchor="middle" x="201.25" y="-52.06" font-family="Times,serif" font-size="24.00">After</text>
<!-- Jafflr -->
<g id="node1" class="node">
<title>Jafflr</title>
<polygon fill="aliceblue" stroke="black" points="54,-43.26 0,-43.26 0,-7.26 54,-7.26 54,-43.26"/>
<text text-anchor="middle" x="27" y="-21.06" font-family="Times,serif" font-size="14.00">Jafflr</text>
</g>
<!-- Chillybin -->
<g id="node2" class="node">
<title>Chillybin</title>
<polygon fill="aliceblue" stroke="black" points="193.08,-43.26 124.29,-43.26 124.29,-7.26 193.08,-7.26 193.08,-43.26"/>
<text text-anchor="middle" x="158.68" y="-21.06" font-family="Times,serif" font-size="14.00">Chillybin</text>
</g>
<!-- Jafflr&#45;&gt;Chillybin -->
<g id="edge1" class="edge">
<title>Jafflr&#45;&gt;Chillybin</title>
<path fill="none" stroke="black" stroke-dasharray="5,2" d="M54.24,-25.26C71.39,-25.26 94.19,-25.26 114.02,-25.26"/>
<polygon fill="black" stroke="black" points="114.08,-28.76 124.08,-25.26 114.08,-21.76 114.08,-28.76"/>
<text text-anchor="middle" x="89.12" y="-28.06" font-family="Times,serif" font-size="14.00">POST</text>
</g>
<!-- DB -->
<g id="node3" class="node">
<title>DB</title>
<path fill="lightgrey" stroke="black" d="M402.51,-39.98C402.51,-41.79 390.41,-43.26 375.51,-43.26 360.61,-43.26 348.51,-41.79 348.51,-39.98 348.51,-39.98 348.51,-10.53 348.51,-10.53 348.51,-8.72 360.61,-7.26 375.51,-7.26 390.41,-7.26 402.51,-8.72 402.51,-10.53 402.51,-10.53 402.51,-39.98 402.51,-39.98"/>
<path fill="none" stroke="black" d="M402.51,-39.98C402.51,-38.18 390.41,-36.71 375.51,-36.71 360.61,-36.71 348.51,-38.18 348.51,-39.98"/>
<text text-anchor="middle" x="375.51" y="-21.06" font-family="Times,serif" font-size="14.00">DB</text>
</g>
<!-- Chillybin&#45;&gt;DB -->
<g id="edge2" class="edge">
<title>Chillybin&#45;&gt;DB</title>
<path fill="none" stroke="black" stroke-dasharray="5,2" d="M193.25,-25.26C232.57,-25.26 297.49,-25.26 338.02,-25.26"/>
<polygon fill="black" stroke="black" points="338.27,-28.76 348.27,-25.26 338.27,-21.76 338.27,-28.76"/>
<text text-anchor="middle" x="270.82" y="-28.06" font-family="Times,serif" font-size="14.00">INSERT orders</text>
</g>
<!-- Chillybin&#45;&gt;DB -->
<g id="edge3" class="edge">
<title>Chillybin&#45;&gt;DB</title>
<path fill="none" stroke="black" d="M193.3,-11.69C199.15,-9.85 205.25,-8.25 211.13,-7.26 263.44,1.63 278.45,2.98 330.51,-7.26 333.32,-7.81 336.17,-8.54 339.01,-9.4"/>
<polygon fill="black" stroke="black" points="337.9,-12.72 348.5,-12.68 340.2,-6.1 337.9,-12.72"/>
<text text-anchor="middle" x="270.82" y="-10.06" font-family="Times,serif" font-size="14.00">UPDATE ingredients</text>
</g>
</g>
</svg>
