<?xml version="1.0" encoding="UTF-8" standalone="no"?>
<!DOCTYPE svg PUBLIC "-//W3C//DTD SVG 1.1//EN"
 "http://www.w3.org/Graphics/SVG/1.1/DTD/svg11.dtd">
<!-- Generated by graphviz version 2.43.0 (0)
 -->
<!-- Title: G Pages: 1 -->
<svg width="403pt" height="76pt"
 viewBox="0.00 0.00 403.49 76.00" xmlns="http://www.w3.org/2000/svg" xmlns:xlink="http://www.w3.org/1999/xlink">
<g id="graph0" class="graph" transform="scale(1 1) rotate(0) translate(4 72)">
<title>G</title>
<polygon fill="white" stroke="transparent" points="-4,4 -4,-72 399.49,-72 399.49,4 -4,4"/>
<text text-anchor="middle" x="197.74" y="-44.8" font-family="Times,serif" font-size="24.00">Before</text>
<!-- Jafflr -->
<g id="node1" class="node">
<title>Jafflr</title>
<polygon fill="aliceblue" stroke="black" points="54,-36 0,-36 0,0 54,0 54,-36"/>
<text text-anchor="middle" x="27" y="-13.8" font-family="Times,serif" font-size="14.00">Jafflr</text>
</g>
<!-- Chillybin -->
<g id="node2" class="node">
<title>Chillybin</title>
<polygon fill="aliceblue" stroke="black" points="186.06,-36 117.27,-36 117.27,0 186.06,0 186.06,-36"/>
<text text-anchor="middle" x="151.66" y="-13.8" font-family="Times,serif" font-size="14.00">Chillybin</text>
</g>
<!-- Jafflr&#45;&gt;Chillybin -->
<g id="edge1" class="edge">
<title>Jafflr&#45;&gt;Chillybin</title>
<path fill="none" stroke="black" stroke-dasharray="1,5" d="M54.01,-18C69.42,-18 89.33,-18 107.07,-18"/>
<polygon fill="black" stroke="black" points="107.22,-21.5 117.22,-18 107.22,-14.5 107.22,-21.5"/>
<text text-anchor="middle" x="85.61" y="-20.8" font-family="Times,serif" font-size="14.00">GET</text>
</g>
<!-- DB -->
<g id="node3" class="node">
<title>DB</title>
<path fill="lightgrey" stroke="black" d="M395.49,-32.73C395.49,-34.53 383.38,-36 368.49,-36 353.59,-36 341.49,-34.53 341.49,-32.73 341.49,-32.73 341.49,-3.27 341.49,-3.27 341.49,-1.47 353.59,0 368.49,0 383.38,0 395.49,-1.47 395.49,-3.27 395.49,-3.27 395.49,-32.73 395.49,-32.73"/>
<path fill="none" stroke="black" d="M395.49,-32.73C395.49,-30.92 383.38,-29.45 368.49,-29.45 353.59,-29.45 341.49,-30.92 341.49,-32.73"/>
<text text-anchor="middle" x="368.49" y="-13.8" font-family="Times,serif" font-size="14.00">DB</text>
</g>
<!-- Chillybin&#45;&gt;DB -->
<g id="edge2" class="edge">
<title>Chillybin&#45;&gt;DB</title>
<path fill="none" stroke="black" d="M186.23,-18C225.55,-18 290.47,-18 331,-18"/>
<polygon fill="black" stroke="black" points="331.25,-21.5 341.25,-18 331.25,-14.5 331.25,-21.5"/>
<text text-anchor="middle" x="263.8" y="-20.8" font-family="Times,serif" font-size="14.00">UPDATE ingredients</text>
</g>
</g>
</svg>
