<?xml version="1.0" encoding="UTF-8" standalone="no"?>
<!DOCTYPE svg PUBLIC "-//W3C//DTD SVG 1.1//EN"
 "http://www.w3.org/Graphics/SVG/1.1/DTD/svg11.dtd">
<!-- Generated by graphviz version 2.43.0 (0)
 -->
<!-- Title: G Pages: 1 -->
<svg width="625pt" height="189pt"
 viewBox="0.00 0.00 625.50 188.71" xmlns="http://www.w3.org/2000/svg" xmlns:xlink="http://www.w3.org/1999/xlink">
<g id="graph0" class="graph" transform="scale(1 1) rotate(0) translate(4 184.71)">
<title>G</title>
<polygon fill="white" stroke="transparent" points="-4,4 -4,-184.71 621.5,-184.71 621.5,4 -4,4"/>
<!-- Changes -->
<g id="node1" class="node">
<title>Changes</title>
<ellipse fill="none" stroke="black" cx="40.56" cy="-84" rx="40.62" ry="40.62"/>
<text text-anchor="middle" x="40.56" y="-79.8" font-family="Times,serif" font-size="14.00">Changes</text>
</g>
<!-- Github -->
<g id="node4" class="node">
<title>Github</title>
<polygon fill="lightgrey" stroke="black" points="227.32,-102 172.54,-102 172.54,-66 227.32,-66 227.32,-102"/>
<text text-anchor="middle" x="199.93" y="-79.8" font-family="Times,serif" font-size="14.00">Github</text>
</g>
<!-- Changes&#45;&gt;Github -->
<g id="edge1" class="edge">
<title>Changes&#45;&gt;Github</title>
<path fill="none" stroke="black" d="M81.27,-84C106.02,-84 137.64,-84 161.87,-84"/>
<polygon fill="black" stroke="black" points="162.1,-87.5 172.1,-84 162.1,-80.5 162.1,-87.5"/>
<text text-anchor="middle" x="126.8" y="-86.8" font-family="Times,serif" font-size="14.00">merge PR</text>
</g>
<!-- Test -->
<g id="node2" class="node">
<title>Test</title>
<ellipse fill="none" stroke="black" cx="578.78" cy="-156" rx="24.93" ry="24.93"/>
<text text-anchor="middle" x="578.78" y="-151.8" font-family="Times,serif" font-size="14.00">Test</text>
</g>
<!-- Build -->
<g id="node3" class="node">
<title>Build</title>
<ellipse fill="none" stroke="black" cx="578.78" cy="-84" rx="29.53" ry="29.53"/>
<text text-anchor="middle" x="578.78" y="-79.8" font-family="Times,serif" font-size="14.00">Build</text>
</g>
<!-- Travis -->
<g id="node5" class="node">
<title>Travis</title>
<polygon fill="lightgrey" stroke="black" points="370.69,-102 316.69,-102 316.69,-66 370.69,-66 370.69,-102"/>
<text text-anchor="middle" x="343.69" y="-79.8" font-family="Times,serif" font-size="14.00">Travis</text>
</g>
<!-- Github&#45;&gt;Travis -->
<g id="edge2" class="edge">
<title>Github&#45;&gt;Travis</title>
<path fill="none" stroke="black" d="M227.59,-84C249.91,-84 281.96,-84 306.58,-84"/>
<polygon fill="black" stroke="black" points="306.62,-87.5 316.62,-84 306.62,-80.5 306.62,-87.5"/>
<text text-anchor="middle" x="272.03" y="-86.8" font-family="Times,serif" font-size="14.00">Webhook</text>
</g>
<!-- Travis&#45;&gt;Test -->
<g id="edge3" class="edge">
<title>Travis&#45;&gt;Test</title>
<path fill="none" stroke="black" d="M371.03,-95.33C376.8,-97.66 382.91,-100 388.69,-102 442.5,-120.63 506.47,-137.91 544.51,-147.69"/>
<polygon fill="black" stroke="black" points="543.97,-151.16 554.52,-150.24 545.7,-144.38 543.97,-151.16"/>
<text text-anchor="middle" x="455.37" y="-142.8" font-family="Times,serif" font-size="14.00">Verify</text>
</g>
<!-- Travis&#45;&gt;Build -->
<g id="edge4" class="edge">
<title>Travis&#45;&gt;Build</title>
<path fill="none" stroke="black" d="M370.97,-84C411.81,-84 490.77,-84 538.43,-84"/>
<polygon fill="black" stroke="black" points="538.67,-87.5 548.67,-84 538.67,-80.5 538.67,-87.5"/>
<text text-anchor="middle" x="455.37" y="-86.8" font-family="Times,serif" font-size="14.00">Build &amp; publish artifact</text>
</g>
<!-- Production -->
<g id="node6" class="node">
<title>Production</title>
<polygon fill="lightgrey" stroke="black" points="617.72,-36 539.83,-36 539.83,0 617.72,0 617.72,-36"/>
<text text-anchor="middle" x="578.78" y="-13.8" font-family="Times,serif" font-size="14.00">Production</text>
</g>
<!-- Travis&#45;&gt;Production -->
<g id="edge5" class="edge">
<title>Travis&#45;&gt;Production</title>
<path fill="none" stroke="black" d="M370.97,-76.56C409.43,-65.67 481.68,-45.21 529.77,-31.59"/>
<polygon fill="black" stroke="black" points="530.98,-34.89 539.65,-28.8 529.07,-28.15 530.98,-34.89"/>
<text text-anchor="middle" x="512.82" y="-17.6" font-family="Times,serif" font-size="14.00">Redeploy</text>
</g>
</g>
</svg>
