<?xml version="1.0" encoding="UTF-8" standalone="no"?>
<!DOCTYPE svg PUBLIC "-//W3C//DTD SVG 1.1//EN"
 "http://www.w3.org/Graphics/SVG/1.1/DTD/svg11.dtd">
<!-- Generated by graphviz version 2.43.0 (0)
 -->
<!-- Title: G Pages: 1 -->
<svg width="558pt" height="189pt"
 viewBox="0.00 0.00 558.13 188.71" xmlns="http://www.w3.org/2000/svg" xmlns:xlink="http://www.w3.org/1999/xlink">
<g id="graph0" class="graph" transform="scale(1 1) rotate(0) translate(4 184.71)">
<title>G</title>
<polygon fill="white" stroke="transparent" points="-4,4 -4,-184.71 554.13,-184.71 554.13,4 -4,4"/>
<!-- Commit -->
<g id="node1" class="node">
<title>Commit</title>
<ellipse fill="none" stroke="black" cx="39.1" cy="-84" rx="39.2" ry="39.2"/>
<text text-anchor="middle" x="39.1" y="-79.8" font-family="Times,serif" font-size="14.00">Commit</text>
</g>
<!-- Github -->
<g id="node4" class="node">
<title>Github</title>
<polygon fill="lightgrey" stroke="black" points="224.39,-102 169.61,-102 169.61,-66 224.39,-66 224.39,-102"/>
<text text-anchor="middle" x="197" y="-79.8" font-family="Times,serif" font-size="14.00">Github</text>
</g>
<!-- Commit&#45;&gt;Github -->
<g id="edge1" class="edge">
<title>Commit&#45;&gt;Github</title>
<path fill="none" stroke="black" d="M78.24,-84C102.89,-84 134.81,-84 159.2,-84"/>
<polygon fill="black" stroke="black" points="159.49,-87.5 169.49,-84 159.49,-80.5 159.49,-87.5"/>
<text text-anchor="middle" x="123.88" y="-86.8" font-family="Times,serif" font-size="14.00">merge PR</text>
</g>
<!-- Test -->
<g id="node2" class="node">
<title>Test</title>
<ellipse fill="none" stroke="black" cx="511.41" cy="-156" rx="24.93" ry="24.93"/>
<text text-anchor="middle" x="511.41" y="-151.8" font-family="Times,serif" font-size="14.00">Test</text>
</g>
<!-- Build -->
<g id="node3" class="node">
<title>Build</title>
<ellipse fill="none" stroke="black" cx="511.41" cy="-84" rx="29.53" ry="29.53"/>
<text text-anchor="middle" x="511.41" y="-79.8" font-family="Times,serif" font-size="14.00">Build</text>
</g>
<!-- Travis -->
<g id="node5" class="node">
<title>Travis</title>
<polygon fill="lightgrey" stroke="black" points="367.76,-102 313.76,-102 313.76,-66 367.76,-66 367.76,-102"/>
<text text-anchor="middle" x="340.76" y="-79.8" font-family="Times,serif" font-size="14.00">Travis</text>
</g>
<!-- Github&#45;&gt;Travis -->
<g id="edge2" class="edge">
<title>Github&#45;&gt;Travis</title>
<path fill="none" stroke="black" d="M224.66,-84C246.98,-84 279.03,-84 303.65,-84"/>
<polygon fill="black" stroke="black" points="303.69,-87.5 313.69,-84 303.69,-80.5 303.69,-87.5"/>
<text text-anchor="middle" x="269.1" y="-86.8" font-family="Times,serif" font-size="14.00">Webhook</text>
</g>
<!-- Travis&#45;&gt;Test -->
<g id="edge3" class="edge">
<title>Travis&#45;&gt;Test</title>
<path fill="none" stroke="black" d="M368.11,-95.25C398.08,-108.05 446.99,-128.93 478.94,-142.57"/>
<polygon fill="black" stroke="black" points="477.7,-145.84 488.27,-146.55 480.45,-139.4 477.7,-145.84"/>
<text text-anchor="middle" x="420.22" y="-132.8" font-family="Times,serif" font-size="14.00">verify</text>
</g>
<!-- Travis&#45;&gt;Build -->
<g id="edge4" class="edge">
<title>Travis&#45;&gt;Build</title>
<path fill="none" stroke="black" d="M368.11,-84C395.74,-84 439.47,-84 471.17,-84"/>
<polygon fill="black" stroke="black" points="471.41,-87.5 481.41,-84 471.41,-80.5 471.41,-87.5"/>
<text text-anchor="middle" x="420.22" y="-86.8" font-family="Times,serif" font-size="14.00">docker&#45;push</text>
</g>
<!-- Production -->
<g id="node6" class="node">
<title>Production</title>
<polygon fill="lightgrey" stroke="black" points="550.35,-36 472.46,-36 472.46,0 550.35,0 550.35,-36"/>
<text text-anchor="middle" x="511.41" y="-13.8" font-family="Times,serif" font-size="14.00">Production</text>
</g>
<!-- Travis&#45;&gt;Production -->
<g id="edge5" class="edge">
<title>Travis&#45;&gt;Production</title>
<path fill="none" stroke="black" d="M367.78,-73.25C373.68,-70.84 379.93,-68.31 385.76,-66 411.12,-55.93 439.51,-44.97 462.78,-36.07"/>
<polygon fill="black" stroke="black" points="464.32,-39.23 472.41,-32.4 461.82,-32.69 464.32,-39.23"/>
<text text-anchor="middle" x="420.22" y="-68.8" font-family="Times,serif" font-size="14.00">deploy</text>
</g>
</g>
</svg>
