<?xml version="1.0" encoding="UTF-8" standalone="no"?>
<!DOCTYPE svg PUBLIC "-//W3C//DTD SVG 1.1//EN"
 "http://www.w3.org/Graphics/SVG/1.1/DTD/svg11.dtd">
<!-- Generated by graphviz version 2.43.0 (0)
 -->
<!-- Title: G Pages: 1 -->
<svg width="710pt" height="189pt"
 viewBox="0.00 0.00 710.34 188.71" xmlns="http://www.w3.org/2000/svg" xmlns:xlink="http://www.w3.org/1999/xlink">
<g id="graph0" class="graph" transform="scale(1 1) rotate(0) translate(4 184.71)">
<title>G</title>
<polygon fill="white" stroke="transparent" points="-4,4 -4,-184.71 706.34,-184.71 706.34,4 -4,4"/>
<!-- Commit -->
<g id="node1" class="node">
<title>Commit</title>
<ellipse fill="none" stroke="black" cx="191.31" cy="-84" rx="39.2" ry="39.2"/>
<text text-anchor="middle" x="191.31" y="-79.8" font-family="Times,serif" font-size="14.00">Commit</text>
</g>
<!-- Github -->
<g id="node5" class="node">
<title>Github</title>
<polygon fill="lightgrey" stroke="black" points="376.6,-102 321.82,-102 321.82,-66 376.6,-66 376.6,-102"/>
<text text-anchor="middle" x="349.21" y="-79.8" font-family="Times,serif" font-size="14.00">Github</text>
</g>
<!-- Commit&#45;&gt;Github -->
<g id="edge2" class="edge">
<title>Commit&#45;&gt;Github</title>
<path fill="none" stroke="black" d="M230.45,-84C255.11,-84 287.03,-84 311.42,-84"/>
<polygon fill="black" stroke="black" points="311.7,-87.5 321.7,-84 311.7,-80.5 311.7,-87.5"/>
<text text-anchor="middle" x="276.09" y="-86.8" font-family="Times,serif" font-size="14.00">merge PR</text>
</g>
<!-- Test -->
<g id="node2" class="node">
<title>Test</title>
<ellipse fill="none" stroke="black" cx="663.62" cy="-156" rx="24.93" ry="24.93"/>
<text text-anchor="middle" x="663.62" y="-151.8" font-family="Times,serif" font-size="14.00">Test</text>
</g>
<!-- Build -->
<g id="node3" class="node">
<title>Build</title>
<ellipse fill="none" stroke="black" cx="663.62" cy="-84" rx="29.53" ry="29.53"/>
<text text-anchor="middle" x="663.62" y="-79.8" font-family="Times,serif" font-size="14.00">Build</text>
</g>
<!-- Me -->
<g id="node4" class="node">
<title>Me</title>
<polygon fill="lightgrey" stroke="black" points="54,-102 0,-102 0,-66 54,-66 54,-102"/>
<text text-anchor="middle" x="27" y="-79.8" font-family="Times,serif" font-size="14.00">Me</text>
</g>
<!-- Me&#45;&gt;Commit -->
<g id="edge1" class="edge">
<title>Me&#45;&gt;Commit</title>
<path fill="none" stroke="black" d="M54.08,-84C77.7,-84 113.12,-84 141.92,-84"/>
<polygon fill="black" stroke="black" points="142.19,-87.5 152.19,-84 142.19,-80.5 142.19,-87.5"/>
<text text-anchor="middle" x="103.11" y="-86.8" font-family="Times,serif" font-size="14.00">git&#45;commit</text>
</g>
<!-- Travis -->
<g id="node6" class="node">
<title>Travis</title>
<polygon fill="lightgrey" stroke="black" points="519.97,-102 465.97,-102 465.97,-66 519.97,-66 519.97,-102"/>
<text text-anchor="middle" x="492.97" y="-79.8" font-family="Times,serif" font-size="14.00">Travis</text>
</g>
<!-- Github&#45;&gt;Travis -->
<g id="edge3" class="edge">
<title>Github&#45;&gt;Travis</title>
<path fill="none" stroke="black" d="M376.88,-84C399.19,-84 431.25,-84 455.86,-84"/>
<polygon fill="black" stroke="black" points="455.91,-87.5 465.91,-84 455.91,-80.5 455.91,-87.5"/>
<text text-anchor="middle" x="421.31" y="-86.8" font-family="Times,serif" font-size="14.00">Webhook</text>
</g>
<!-- Travis&#45;&gt;Test -->
<g id="edge4" class="edge">
<title>Travis&#45;&gt;Test</title>
<path fill="none" stroke="black" d="M520.32,-95.25C550.29,-108.05 599.21,-128.93 631.15,-142.57"/>
<polygon fill="black" stroke="black" points="629.91,-145.84 640.48,-146.55 632.66,-139.4 629.91,-145.84"/>
<text text-anchor="middle" x="572.43" y="-132.8" font-family="Times,serif" font-size="14.00">verify</text>
</g>
<!-- Travis&#45;&gt;Build -->
<g id="edge5" class="edge">
<title>Travis&#45;&gt;Build</title>
<path fill="none" stroke="black" d="M520.32,-84C547.96,-84 591.69,-84 623.38,-84"/>
<polygon fill="black" stroke="black" points="623.63,-87.5 633.63,-84 623.63,-80.5 623.63,-87.5"/>
<text text-anchor="middle" x="572.43" y="-86.8" font-family="Times,serif" font-size="14.00">docker&#45;push</text>
</g>
<!-- Production -->
<g id="node7" class="node">
<title>Production</title>
<polygon fill="lightgrey" stroke="black" points="702.56,-36 624.68,-36 624.68,0 702.56,0 702.56,-36"/>
<text text-anchor="middle" x="663.62" y="-13.8" font-family="Times,serif" font-size="14.00">Production</text>
</g>
<!-- Travis&#45;&gt;Production -->
<g id="edge6" class="edge">
<title>Travis&#45;&gt;Production</title>
<path fill="none" stroke="black" d="M519.99,-73.25C525.9,-70.84 532.14,-68.31 537.97,-66 563.34,-55.93 591.72,-44.97 614.99,-36.07"/>
<polygon fill="black" stroke="black" points="616.53,-39.23 624.63,-32.4 614.04,-32.69 616.53,-39.23"/>
<text text-anchor="middle" x="572.43" y="-68.8" font-family="Times,serif" font-size="14.00">deploy</text>
</g>
</g>
</svg>
