<?xml version="1.0" encoding="UTF-8" standalone="no"?>
<!DOCTYPE svg PUBLIC "-//W3C//DTD SVG 1.1//EN"
 "http://www.w3.org/Graphics/SVG/1.1/DTD/svg11.dtd">
<!-- Generated by graphviz version 2.43.0 (0)
 -->
<!-- Title: G Pages: 1 -->
<svg width="718pt" height="271pt"
 viewBox="0.00 0.00 718.21 271.00" xmlns="http://www.w3.org/2000/svg" xmlns:xlink="http://www.w3.org/1999/xlink">
<g id="graph0" class="graph" transform="scale(1 1) rotate(0) translate(4 267)">
<title>G</title>
<polygon fill="white" stroke="transparent" points="-4,4 -4,-267 714.21,-267 714.21,4 -4,4"/>
<g id="clust1" class="cluster">
<title>cluster_0</title>
<polygon fill="none" stroke="black" points="518.76,-90 518.76,-255 702.21,-255 702.21,-90 518.76,-90"/>
<text text-anchor="middle" x="610.48" y="-239.8" font-family="Times,serif" font-size="14.00">any change</text>
</g>
<g id="clust2" class="cluster">
<title>cluster_1</title>
<polygon fill="none" stroke="black" points="512.24,-8 512.24,-82 605.69,-82 605.69,-8 512.24,-8"/>
<text text-anchor="middle" x="558.96" y="-66.8" font-family="Times,serif" font-size="14.00">master only</text>
</g>
<!-- Changes -->
<g id="node1" class="node">
<title>Changes</title>
<ellipse fill="none" stroke="black" cx="40.56" cy="-81" rx="40.62" ry="40.62"/>
<text text-anchor="middle" x="40.56" y="-76.8" font-family="Times,serif" font-size="14.00">Changes</text>
</g>
<!-- Github -->
<g id="node5" class="node">
<title>Github</title>
<polygon fill="lightgrey" stroke="black" points="227.32,-99 172.54,-99 172.54,-63 227.32,-63 227.32,-99"/>
<text text-anchor="middle" x="199.93" y="-76.8" font-family="Times,serif" font-size="14.00">Github</text>
</g>
<!-- Changes&#45;&gt;Github -->
<g id="edge1" class="edge">
<title>Changes&#45;&gt;Github</title>
<path fill="none" stroke="black" d="M81.27,-81C106.02,-81 137.64,-81 161.87,-81"/>
<polygon fill="black" stroke="black" points="162.1,-84.5 172.1,-81 162.1,-77.5 162.1,-84.5"/>
<text text-anchor="middle" x="126.8" y="-83.8" font-family="Times,serif" font-size="14.00">merge PR</text>
</g>
<!-- Verify -->
<g id="node2" class="node">
<title>Verify</title>
<ellipse fill="none" stroke="black" cx="558.96" cy="-130" rx="32.42" ry="32.42"/>
<text text-anchor="middle" x="558.96" y="-125.8" font-family="Times,serif" font-size="14.00">Verify</text>
</g>
<!-- Test -->
<g id="node3" class="node">
<title>Test</title>
<ellipse fill="none" stroke="black" cx="664.45" cy="-123" rx="24.93" ry="24.93"/>
<text text-anchor="middle" x="664.45" y="-118.8" font-family="Times,serif" font-size="14.00">Test</text>
</g>
<!-- Verify&#45;&gt;Test -->
<g id="edge4" class="edge">
<title>Verify&#45;&gt;Test</title>
<path fill="none" stroke="black" d="M591.29,-127.88C603.26,-127.07 616.95,-126.15 629.18,-125.32"/>
<polygon fill="black" stroke="black" points="629.72,-128.79 639.46,-124.62 629.24,-121.81 629.72,-128.79"/>
</g>
<!-- Build -->
<g id="node4" class="node">
<title>Build</title>
<ellipse fill="none" stroke="black" cx="664.45" cy="-195" rx="29.53" ry="29.53"/>
<text text-anchor="middle" x="664.45" y="-190.8" font-family="Times,serif" font-size="14.00">Build</text>
</g>
<!-- Verify&#45;&gt;Build -->
<g id="edge5" class="edge">
<title>Verify&#45;&gt;Build</title>
<path fill="none" stroke="black" d="M586.61,-146.74C599.78,-155.01 615.8,-165.07 629.81,-173.87"/>
<polygon fill="black" stroke="black" points="628.34,-177.08 638.67,-179.43 632.06,-171.15 628.34,-177.08"/>
</g>
<!-- Travis -->
<g id="node6" class="node">
<title>Travis</title>
<polygon fill="lightgrey" stroke="black" points="370.69,-99 316.69,-99 316.69,-63 370.69,-63 370.69,-99"/>
<text text-anchor="middle" x="343.69" y="-76.8" font-family="Times,serif" font-size="14.00">Travis</text>
</g>
<!-- Github&#45;&gt;Travis -->
<g id="edge2" class="edge">
<title>Github&#45;&gt;Travis</title>
<path fill="none" stroke="black" d="M227.59,-81C249.91,-81 281.96,-81 306.58,-81"/>
<polygon fill="black" stroke="black" points="306.62,-84.5 316.62,-81 306.62,-77.5 306.62,-84.5"/>
<text text-anchor="middle" x="272.03" y="-83.8" font-family="Times,serif" font-size="14.00">Webhook</text>
</g>
<!-- Travis&#45;&gt;Verify -->
<g id="edge3" class="edge">
<title>Travis&#45;&gt;Verify</title>
<path fill="none" stroke="black" d="M370.84,-87.01C407.5,-95.43 474.5,-110.82 517.59,-120.72"/>
<polygon fill="black" stroke="black" points="516.93,-124.16 527.46,-122.99 518.5,-117.34 516.93,-124.16"/>
<text text-anchor="middle" x="445.46" y="-118.8" font-family="Times,serif" font-size="14.00">Test and Build</text>
</g>
<!-- Production -->
<g id="node7" class="node">
<title>Production</title>
<polygon fill="lightgrey" stroke="black" points="597.91,-52 520.02,-52 520.02,-16 597.91,-16 597.91,-52"/>
<text text-anchor="middle" x="558.96" y="-29.8" font-family="Times,serif" font-size="14.00">Production</text>
</g>
<!-- Travis&#45;&gt;Production -->
<g id="edge6" class="edge">
<title>Travis&#45;&gt;Production</title>
<path fill="none" stroke="black" stroke-dasharray="5,2" d="M370.84,-75.24C405.44,-67.61 467.07,-54.03 510.11,-44.55"/>
<polygon fill="black" stroke="black" points="511.07,-47.92 520.08,-42.35 509.56,-41.08 511.07,-47.92"/>
<text text-anchor="middle" x="445.46" y="-72.8" font-family="Times,serif" font-size="14.00">Publish &amp; Redeploy</text>
</g>
</g>
</svg>
