<?xml version="1.0" encoding="UTF-8" standalone="no"?>
<!DOCTYPE svg PUBLIC "-//W3C//DTD SVG 1.1//EN"
 "http://www.w3.org/Graphics/SVG/1.1/DTD/svg11.dtd">
<!-- Generated by graphviz version 2.43.0 (0)
 -->
<!-- Title: G Pages: 1 -->
<svg width="635pt" height="361pt"
 viewBox="0.00 0.00 635.35 361.00" xmlns="http://www.w3.org/2000/svg" xmlns:xlink="http://www.w3.org/1999/xlink">
<g id="graph0" class="graph" transform="scale(1 1) rotate(0) translate(4 357)">
<title>G</title>
<polygon fill="white" stroke="transparent" points="-4,4 -4,-357 631.35,-357 631.35,4 -4,4"/>
<g id="clust1" class="cluster">
<title>cluster_0</title>
<polygon fill="none" stroke="black" points="411.74,-126 411.74,-345 619.35,-345 619.35,-126 411.74,-126"/>
<text text-anchor="middle" x="515.55" y="-329.8" font-family="Times,serif" font-size="14.00">Any change</text>
</g>
<g id="clust2" class="cluster">
<title>cluster_1</title>
<polygon fill="none" stroke="black" stroke-dasharray="5,2" points="412.25,-8 412.25,-118 617.41,-118 617.41,-8 412.25,-8"/>
<text text-anchor="middle" x="514.83" y="-102.8" font-family="Times,serif" font-size="14.00">Master only</text>
</g>
<!-- Changes -->
<g id="node1" class="node">
<title>Changes</title>
<ellipse fill="none" stroke="black" cx="40.56" cy="-171" rx="40.62" ry="40.62"/>
<text text-anchor="middle" x="40.56" y="-166.8" font-family="Times,serif" font-size="14.00">Changes</text>
</g>
<!-- Github -->
<g id="node7" class="node">
<title>Github</title>
<polygon fill="lightgrey" stroke="black" points="239.38,-189 184.6,-189 184.6,-153 239.38,-153 239.38,-189"/>
<text text-anchor="middle" x="211.99" y="-166.8" font-family="Times,serif" font-size="14.00">Github</text>
</g>
<!-- Changes&#45;&gt;Github -->
<g id="edge1" class="edge">
<title>Changes&#45;&gt;Github</title>
<path fill="none" stroke="black" d="M81.28,-171C109.35,-171 146.69,-171 174.1,-171"/>
<polygon fill="black" stroke="black" points="174.44,-174.5 184.44,-171 174.44,-167.5 174.44,-174.5"/>
<text text-anchor="middle" x="132.83" y="-173.8" font-family="Times,serif" font-size="14.00">Merge/Push</text>
</g>
<!-- Verify -->
<g id="node2" class="node">
<title>Verify</title>
<ellipse fill="none" stroke="black" cx="456.39" cy="-258" rx="32.42" ry="32.42"/>
<text text-anchor="middle" x="456.39" y="-253.8" font-family="Times,serif" font-size="14.00">Verify</text>
</g>
<!-- Test -->
<g id="node3" class="node">
<title>Test</title>
<ellipse fill="none" stroke="black" cx="570.69" cy="-213" rx="24.93" ry="24.93"/>
<text text-anchor="middle" x="570.69" y="-208.8" font-family="Times,serif" font-size="14.00">Test</text>
</g>
<!-- Verify&#45;&gt;Test -->
<g id="edge4" class="edge">
<title>Verify&#45;&gt;Test</title>
<path fill="none" stroke="black" d="M486.6,-246.29C502.32,-240 521.72,-232.22 537.83,-225.77"/>
<polygon fill="black" stroke="black" points="539.38,-228.92 547.36,-221.95 536.78,-222.42 539.38,-228.92"/>
</g>
<!-- Build -->
<g id="node4" class="node">
<title>Build</title>
<ellipse fill="none" stroke="black" cx="570.69" cy="-285" rx="29.53" ry="29.53"/>
<text text-anchor="middle" x="570.69" y="-280.8" font-family="Times,serif" font-size="14.00">Build</text>
</g>
<!-- Verify&#45;&gt;Build -->
<g id="edge5" class="edge">
<title>Verify&#45;&gt;Build</title>
<path fill="none" stroke="black" d="M487.78,-265.31C501.27,-268.55 517.28,-272.4 531.56,-275.83"/>
<polygon fill="black" stroke="black" points="531.05,-279.31 541.59,-278.24 532.68,-272.5 531.05,-279.31"/>
</g>
<!-- Publish -->
<g id="node5" class="node">
<title>Publish</title>
<ellipse fill="none" stroke="black" cx="456.39" cy="-171" rx="36.79" ry="36.79"/>
<text text-anchor="middle" x="456.39" y="-166.8" font-family="Times,serif" font-size="14.00">Publish</text>
</g>
<!-- DockerHub -->
<g id="node6" class="node">
<title>DockerHub</title>
<polygon fill="lightgrey" stroke="black" points="611.5,-170 529.88,-170 529.88,-134 611.5,-134 611.5,-170"/>
<text text-anchor="middle" x="570.69" y="-147.8" font-family="Times,serif" font-size="14.00">DockerHub</text>
</g>
<!-- Publish&#45;&gt;DockerHub -->
<g id="edge7" class="edge">
<title>Publish&#45;&gt;DockerHub</title>
<path fill="none" stroke="black" d="M492.61,-165.04C501.31,-163.57 510.78,-161.97 520.01,-160.4"/>
<polygon fill="black" stroke="black" points="520.62,-163.85 529.9,-158.73 519.45,-156.95 520.62,-163.85"/>
</g>
<!-- Travis -->
<g id="node8" class="node">
<title>Travis</title>
<polygon fill="lightgrey" stroke="black" points="382.74,-189 328.74,-189 328.74,-153 382.74,-153 382.74,-189"/>
<text text-anchor="middle" x="355.74" y="-166.8" font-family="Times,serif" font-size="14.00">Travis</text>
</g>
<!-- Github&#45;&gt;Travis -->
<g id="edge2" class="edge">
<title>Github&#45;&gt;Travis</title>
<path fill="none" stroke="black" d="M239.65,-171C261.97,-171 294.02,-171 318.63,-171"/>
<polygon fill="black" stroke="black" points="318.68,-174.5 328.68,-171 318.68,-167.5 318.68,-174.5"/>
<text text-anchor="middle" x="284.09" y="-173.8" font-family="Times,serif" font-size="14.00">Webhook</text>
</g>
<!-- Travis&#45;&gt;Verify -->
<g id="edge3" class="edge">
<title>Travis&#45;&gt;Verify</title>
<path fill="none" stroke="black" d="M377.18,-189.03C390.64,-200.89 408.52,-216.67 423.79,-230.13"/>
<polygon fill="black" stroke="black" points="421.69,-232.94 431.5,-236.93 426.32,-227.69 421.69,-232.94"/>
</g>
<!-- Travis&#45;&gt;Publish -->
<g id="edge6" class="edge">
<title>Travis&#45;&gt;Publish</title>
<path fill="none" stroke="black" d="M382.92,-171C391.05,-171 400.26,-171 409.33,-171"/>
<polygon fill="black" stroke="black" points="409.43,-174.5 419.43,-171 409.43,-167.5 409.43,-174.5"/>
</g>
<!-- Deploy -->
<g id="node9" class="node">
<title>Deploy</title>
<ellipse fill="none" stroke="black" cx="456.39" cy="-52" rx="36.28" ry="36.28"/>
<text text-anchor="middle" x="456.39" y="-47.8" font-family="Times,serif" font-size="14.00">Deploy</text>
</g>
<!-- Travis&#45;&gt;Deploy -->
<g id="edge8" class="edge">
<title>Travis&#45;&gt;Deploy</title>
<path fill="none" stroke="black" stroke-dasharray="5,2" d="M371.73,-152.93C386.06,-135.63 408.09,-109.06 425.94,-87.53"/>
<polygon fill="black" stroke="black" points="428.87,-89.48 432.55,-79.55 423.48,-85.01 428.87,-89.48"/>
</g>
<!-- Production -->
<g id="node10" class="node">
<title>Production</title>
<polygon fill="lightgrey" stroke="black" points="609.63,-70 531.75,-70 531.75,-34 609.63,-34 609.63,-70"/>
<text text-anchor="middle" x="570.69" y="-47.8" font-family="Times,serif" font-size="14.00">Production</text>
</g>
<!-- Deploy&#45;&gt;Production -->
<g id="edge9" class="edge">
<title>Deploy&#45;&gt;Production</title>
<path fill="none" stroke="black" d="M492.61,-52C501.88,-52 512.02,-52 521.83,-52"/>
<polygon fill="black" stroke="black" points="521.87,-55.5 531.87,-52 521.87,-48.5 521.87,-55.5"/>
</g>
</g>
</svg>
