<?xml version="1.0" encoding="UTF-8" standalone="no"?>
<!DOCTYPE svg PUBLIC "-//W3C//DTD SVG 1.1//EN"
 "http://www.w3.org/Graphics/SVG/1.1/DTD/svg11.dtd">
<!-- Generated by graphviz version 2.43.0 (0)
 -->
<!-- Title: G Pages: 1 -->
<svg width="470pt" height="59pt"
 viewBox="0.00 0.00 470.37 58.66" xmlns="http://www.w3.org/2000/svg" xmlns:xlink="http://www.w3.org/1999/xlink">
<g id="graph0" class="graph" transform="scale(1 1) rotate(0) translate(4 54.66)">
<title>G</title>
<polygon fill="white" stroke="transparent" points="-4,4 -4,-54.66 466.37,-54.66 466.37,4 -4,4"/>
<!-- Gita -->
<g id="node1" class="node">
<title>Gita</title>
<ellipse fill="none" stroke="black" cx="25.33" cy="-25.33" rx="25.17" ry="25.17"/>
<text text-anchor="middle" x="25.33" y="-21.13" font-family="Times,serif" font-size="14.00">Gita</text>
</g>
<!-- Jafflr -->
<g id="node2" class="node">
<title>Jafflr</title>
<polygon fill="aliceblue" stroke="black" points="223.76,-43.33 169.76,-43.33 169.76,-7.33 223.76,-7.33 223.76,-43.33"/>
<text text-anchor="middle" x="196.76" y="-21.13" font-family="Times,serif" font-size="14.00">Jafflr</text>
</g>
<!-- Gita&#45;&gt;Jafflr -->
<g id="edge1" class="edge">
<title>Gita&#45;&gt;Jafflr</title>
<path fill="none" stroke="black" d="M50.97,-25.33C79.54,-25.33 126.89,-25.33 159.63,-25.33"/>
<polygon fill="black" stroke="black" points="159.7,-28.83 169.7,-25.33 159.7,-21.83 159.7,-28.83"/>
<text text-anchor="middle" x="110.21" y="-28.13" font-family="Times,serif" font-size="14.00">HTTP Request</text>
</g>
<!-- Jafflr&#45;&gt;Gita -->
<g id="edge4" class="edge">
<title>Jafflr&#45;&gt;Gita</title>
<path fill="none" stroke="black" stroke-dasharray="1,5" d="M169.75,-12.76C163.95,-10.51 157.75,-8.51 151.76,-7.33 115.52,-0.21 104.85,0.04 68.66,-7.33 65.01,-8.08 61.27,-9.15 57.61,-10.41"/>
<polygon fill="black" stroke="black" points="56.25,-7.18 48.2,-14.06 58.79,-13.71 56.25,-7.18"/>
<text text-anchor="middle" x="110.21" y="-10.13" font-family="Times,serif" font-size="14.00">Toastie</text>
</g>
<!-- Chillybin -->
<g id="node3" class="node">
<title>Chillybin</title>
<polygon fill="aliceblue" stroke="black" points="329.6,-43.33 260.81,-43.33 260.81,-7.33 329.6,-7.33 329.6,-43.33"/>
<text text-anchor="middle" x="295.2" y="-21.13" font-family="Times,serif" font-size="14.00">Chillybin</text>
</g>
<!-- Jafflr&#45;&gt;Chillybin -->
<g id="edge2" class="edge">
<title>Jafflr&#45;&gt;Chillybin</title>
<path fill="none" stroke="black" d="M223.86,-25.33C232.04,-25.33 241.32,-25.33 250.38,-25.33"/>
<polygon fill="black" stroke="black" points="250.46,-28.83 260.46,-25.33 250.46,-21.83 250.46,-28.83"/>
</g>
<!-- DB -->
<g id="node4" class="node">
<title>DB</title>
<path fill="lightgrey" stroke="black" d="M462.23,-40.06C462.23,-41.87 440.84,-43.33 414.51,-43.33 388.18,-43.33 366.79,-41.87 366.79,-40.06 366.79,-40.06 366.79,-10.61 366.79,-10.61 366.79,-8.8 388.18,-7.33 414.51,-7.33 440.84,-7.33 462.23,-8.8 462.23,-10.61 462.23,-10.61 462.23,-40.06 462.23,-40.06"/>
<path fill="none" stroke="black" d="M462.23,-40.06C462.23,-38.25 440.84,-36.79 414.51,-36.79 388.18,-36.79 366.79,-38.25 366.79,-40.06"/>
<text text-anchor="middle" x="414.51" y="-21.13" font-family="Times,serif" font-size="14.00">Postgres (DB)</text>
</g>
<!-- Chillybin&#45;&gt;DB -->
<g id="edge3" class="edge">
<title>Chillybin&#45;&gt;DB</title>
<path fill="none" stroke="black" d="M329.82,-25.33C338.18,-25.33 347.38,-25.33 356.53,-25.33"/>
<polygon fill="black" stroke="black" points="356.78,-28.83 366.78,-25.33 356.78,-21.83 356.78,-28.83"/>
</g>
</g>
</svg>
