<?xml version="1.0" encoding="UTF-8" standalone="no"?>
<!DOCTYPE svg PUBLIC "-//W3C//DTD SVG 1.1//EN"
 "http://www.w3.org/Graphics/SVG/1.1/DTD/svg11.dtd">
<!-- Generated by graphviz version 2.43.0 (0)
 -->
<!-- Title: G Pages: 1 -->
<svg width="432pt" height="59pt"
 viewBox="0.00 0.00 432.39 58.66" xmlns="http://www.w3.org/2000/svg" xmlns:xlink="http://www.w3.org/1999/xlink">
<g id="graph0" class="graph" transform="scale(1 1) rotate(0) translate(4 54.66)">
<title>G</title>
<polygon fill="white" stroke="transparent" points="-4,4 -4,-54.66 428.39,-54.66 428.39,4 -4,4"/>
<!-- Gita -->
<g id="node1" class="node">
<title>Gita</title>
<ellipse fill="none" stroke="black" cx="25.33" cy="-25.33" rx="25.17" ry="25.17"/>
<text text-anchor="middle" x="25.33" y="-21.13" font-family="Times,serif" font-size="14.00">Gita</text>
</g>
<!-- Jafflr -->
<g id="node2" class="node">
<title>Jafflr</title>
<polygon fill="aliceblue" stroke="black" points="185.77,-43.33 131.77,-43.33 131.77,-7.33 185.77,-7.33 185.77,-43.33"/>
<text text-anchor="middle" x="158.77" y="-21.13" font-family="Times,serif" font-size="14.00">Jafflr</text>
</g>
<!-- Gita&#45;&gt;Jafflr -->
<g id="edge1" class="edge">
<title>Gita&#45;&gt;Jafflr</title>
<path fill="none" stroke="black" d="M50.75,-25.33C70.61,-25.33 98.95,-25.33 121.48,-25.33"/>
<polygon fill="black" stroke="black" points="121.68,-28.83 131.68,-25.33 121.68,-21.83 121.68,-28.83"/>
<text text-anchor="middle" x="91.22" y="-28.13" font-family="Times,serif" font-size="14.00">Request</text>
</g>
<!-- Jafflr&#45;&gt;Gita -->
<g id="edge4" class="edge">
<title>Jafflr&#45;&gt;Gita</title>
<path fill="none" stroke="black" stroke-dasharray="1,5" d="M131.76,-12.76C125.97,-10.51 119.76,-8.51 113.77,-7.33 94.1,-3.46 88.31,-3.33 68.66,-7.33 65.01,-8.08 61.27,-9.15 57.61,-10.41"/>
<polygon fill="black" stroke="black" points="56.25,-7.18 48.2,-14.06 58.79,-13.71 56.25,-7.18"/>
<text text-anchor="middle" x="91.22" y="-10.13" font-family="Times,serif" font-size="14.00">Toastie</text>
</g>
<!-- Chillybin -->
<g id="node3" class="node">
<title>Chillybin</title>
<polygon fill="aliceblue" stroke="black" points="291.61,-43.33 222.82,-43.33 222.82,-7.33 291.61,-7.33 291.61,-43.33"/>
<text text-anchor="middle" x="257.22" y="-21.13" font-family="Times,serif" font-size="14.00">Chillybin</text>
</g>
<!-- Jafflr&#45;&gt;Chillybin -->
<g id="edge2" class="edge">
<title>Jafflr&#45;&gt;Chillybin</title>
<path fill="none" stroke="black" d="M185.87,-25.33C194.06,-25.33 203.33,-25.33 212.4,-25.33"/>
<polygon fill="black" stroke="black" points="212.47,-28.83 222.47,-25.33 212.47,-21.83 212.47,-28.83"/>
</g>
<!-- DB -->
<g id="node4" class="node">
<title>DB</title>
<path fill="lightgrey" stroke="black" d="M424.25,-40.06C424.25,-41.87 402.86,-43.33 376.53,-43.33 350.19,-43.33 328.8,-41.87 328.8,-40.06 328.8,-40.06 328.8,-10.61 328.8,-10.61 328.8,-8.8 350.19,-7.33 376.53,-7.33 402.86,-7.33 424.25,-8.8 424.25,-10.61 424.25,-10.61 424.25,-40.06 424.25,-40.06"/>
<path fill="none" stroke="black" d="M424.25,-40.06C424.25,-38.25 402.86,-36.79 376.53,-36.79 350.19,-36.79 328.8,-38.25 328.8,-40.06"/>
<text text-anchor="middle" x="376.53" y="-21.13" font-family="Times,serif" font-size="14.00">Postgres (DB)</text>
</g>
<!-- Chillybin&#45;&gt;DB -->
<g id="edge3" class="edge">
<title>Chillybin&#45;&gt;DB</title>
<path fill="none" stroke="black" d="M291.83,-25.33C300.2,-25.33 309.39,-25.33 318.54,-25.33"/>
<polygon fill="black" stroke="black" points="318.79,-28.83 328.79,-25.33 318.79,-21.83 318.79,-28.83"/>
</g>
</g>
</svg>
