<?xml version="1.0" encoding="UTF-8" standalone="no"?>
<!DOCTYPE svg PUBLIC "-//W3C//DTD SVG 1.1//EN"
 "http://www.w3.org/Graphics/SVG/1.1/DTD/svg11.dtd">
<!-- Generated by graphviz version 2.43.0 (0)
 -->
<!-- Title: G Pages: 1 -->
<svg width="412pt" height="156pt"
 viewBox="0.00 0.00 411.81 156.14" xmlns="http://www.w3.org/2000/svg" xmlns:xlink="http://www.w3.org/1999/xlink">
<g id="graph0" class="graph" transform="scale(1 1) rotate(0) translate(4 152.14)">
<title>G</title>
<polygon fill="white" stroke="transparent" points="-4,4 -4,-152.14 407.81,-152.14 407.81,4 -4,4"/>
<text text-anchor="middle" x="201.91" y="-124.94" font-family="Times,serif" font-size="24.00">Toasties Galore</text>
<!-- Request -->
<g id="node1" class="node">
<title>Request</title>
<ellipse fill="none" stroke="black" cx="38.6" cy="-64.14" rx="38.7" ry="38.7"/>
<text text-anchor="middle" x="38.6" y="-59.94" font-family="Times,serif" font-size="14.00">Request</text>
</g>
<!-- Jafflr -->
<g id="node2" class="node">
<title>Jafflr</title>
<polygon fill="aliceblue" stroke="black" points="167.2,-82.14 113.2,-82.14 113.2,-46.14 167.2,-46.14 167.2,-82.14"/>
<text text-anchor="middle" x="140.2" y="-59.94" font-family="Times,serif" font-size="14.00">Jafflr</text>
</g>
<!-- Request&#45;&gt;Jafflr -->
<g id="edge1" class="edge">
<title>Request&#45;&gt;Jafflr</title>
<path fill="none" stroke="black" d="M77.25,-64.14C85.62,-64.14 94.47,-64.14 102.79,-64.14"/>
<polygon fill="black" stroke="black" points="102.95,-67.64 112.95,-64.14 102.95,-60.64 102.95,-67.64"/>
</g>
<!-- Chillybin -->
<g id="node3" class="node">
<title>Chillybin</title>
<polygon fill="aliceblue" stroke="black" points="272.04,-116.14 203.25,-116.14 203.25,-80.14 272.04,-80.14 272.04,-116.14"/>
<text text-anchor="middle" x="237.64" y="-93.94" font-family="Times,serif" font-size="14.00">Chillybin</text>
</g>
<!-- Jafflr&#45;&gt;Chillybin -->
<g id="edge2" class="edge">
<title>Jafflr&#45;&gt;Chillybin</title>
<path fill="none" stroke="black" d="M167.28,-73.43C175.38,-76.32 184.55,-79.58 193.5,-82.77"/>
<polygon fill="black" stroke="black" points="192.46,-86.12 203.06,-86.18 194.81,-79.52 192.46,-86.12"/>
</g>
<!-- Toastie -->
<g id="node5" class="node">
<title>Toastie</title>
<polygon fill="#f2ffcc" stroke="black" points="268.92,-62.42 206.36,-62.42 206.36,0.14 268.92,0.14 268.92,-62.42"/>
<polyline fill="none" stroke="black" points="218.36,-62.42 206.36,-50.42 "/>
<polyline fill="none" stroke="black" points="206.36,-11.86 218.36,0.14 "/>
<polyline fill="none" stroke="black" points="256.92,0.14 268.92,-11.86 "/>
<polyline fill="none" stroke="black" points="268.92,-50.42 256.92,-62.42 "/>
<text text-anchor="middle" x="237.64" y="-33.94" font-family="Times,serif" font-size="14.00">Output: </text>
<text text-anchor="middle" x="237.64" y="-19.94" font-family="Times,serif" font-size="14.00">Toastie</text>
</g>
<!-- Jafflr&#45;&gt;Toastie -->
<g id="edge4" class="edge">
<title>Jafflr&#45;&gt;Toastie</title>
<path fill="none" stroke="black" d="M167.28,-55.12C176.3,-52 186.64,-48.43 196.52,-45.01"/>
<polygon fill="black" stroke="black" points="197.89,-48.24 206.2,-41.67 195.6,-41.63 197.89,-48.24"/>
</g>
<!-- DB -->
<g id="node4" class="node">
<title>DB</title>
<path fill="lightgrey" stroke="black" d="M403.67,-112.87C403.67,-114.67 382.28,-116.14 355.95,-116.14 329.62,-116.14 308.23,-114.67 308.23,-112.87 308.23,-112.87 308.23,-83.41 308.23,-83.41 308.23,-81.61 329.62,-80.14 355.95,-80.14 382.28,-80.14 403.67,-81.61 403.67,-83.41 403.67,-83.41 403.67,-112.87 403.67,-112.87"/>
<path fill="none" stroke="black" d="M403.67,-112.87C403.67,-111.06 382.28,-109.59 355.95,-109.59 329.62,-109.59 308.23,-111.06 308.23,-112.87"/>
<text text-anchor="middle" x="355.95" y="-93.94" font-family="Times,serif" font-size="14.00">Postgres (DB)</text>
</g>
<!-- Chillybin&#45;&gt;DB -->
<g id="edge3" class="edge">
<title>Chillybin&#45;&gt;DB</title>
<path fill="none" stroke="black" d="M272.28,-98.14C280.29,-98.14 289.05,-98.14 297.79,-98.14"/>
<polygon fill="black" stroke="black" points="297.98,-101.64 307.98,-98.14 297.98,-94.64 297.98,-101.64"/>
</g>
</g>
</svg>
