<?xml version="1.0" encoding="UTF-8" standalone="no"?>
<!DOCTYPE svg PUBLIC "-//W3C//DTD SVG 1.1//EN"
 "http://www.w3.org/Graphics/SVG/1.1/DTD/svg11.dtd">
<!-- Generated by graphviz version 2.43.0 (0)
 -->
<!-- Title: G Pages: 1 -->
<svg width="498pt" height="87pt"
 viewBox="0.00 0.00 498.39 86.54" xmlns="http://www.w3.org/2000/svg" xmlns:xlink="http://www.w3.org/1999/xlink">
<g id="graph0" class="graph" transform="scale(1 1) rotate(0) translate(4 82.54)">
<title>G</title>
<polygon fill="white" stroke="transparent" points="-4,4 -4,-82.54 494.39,-82.54 494.39,4 -4,4"/>
<text text-anchor="middle" x="245.19" y="-55.34" font-family="Times,serif" font-size="24.00">Breaking Changes</text>
<!-- Jafflr -->
<g id="node1" class="node">
<title>Jafflr</title>
<polygon fill="aliceblue" stroke="black" points="54,-46.54 0,-46.54 0,-10.54 54,-10.54 54,-46.54"/>
<text text-anchor="middle" x="27" y="-24.34" font-family="Times,serif" font-size="14.00">Jafflr</text>
</g>
<!-- Chillybin -->
<g id="node2" class="node">
<title>Chillybin</title>
<polygon fill="aliceblue" stroke="black" points="226.9,-46.54 158.11,-46.54 158.11,-10.54 226.9,-10.54 226.9,-46.54"/>
<text text-anchor="middle" x="192.51" y="-24.34" font-family="Times,serif" font-size="14.00">Chillybin</text>
</g>
<!-- Jafflr&#45;&gt;Chillybin -->
<g id="edge1" class="edge">
<title>Jafflr&#45;&gt;Chillybin</title>
<path fill="none" stroke="black" stroke-dasharray="1,5" d="M54.27,-28.54C79.46,-28.54 117.97,-28.54 147.79,-28.54"/>
<polygon fill="black" stroke="black" points="147.94,-32.04 157.94,-28.54 147.94,-25.04 147.94,-32.04"/>
<text text-anchor="middle" x="106.03" y="-31.34" font-family="Times,serif" font-size="14.00">Old: GET</text>
</g>
<!-- Jafflr&#45;&gt;Chillybin -->
<g id="edge2" class="edge">
<title>Jafflr&#45;&gt;Chillybin</title>
<path fill="none" stroke="black" d="M54.01,-15.97C59.8,-13.72 66.01,-11.72 72,-10.54 101.68,-4.7 110.24,-5.47 140.06,-10.54 142.72,-10.99 145.43,-11.57 148.14,-12.23"/>
<polygon fill="black" stroke="black" points="147.32,-15.64 157.89,-14.98 149.22,-8.9 147.32,-15.64"/>
<text text-anchor="middle" x="106.03" y="-13.34" font-family="Times,serif" font-size="14.00">New: POST</text>
</g>
<!-- DB -->
<g id="node3" class="node">
<title>DB</title>
<path fill="lightgrey" stroke="black" d="M490.39,-43.27C490.39,-45.07 478.29,-46.54 463.39,-46.54 448.49,-46.54 436.39,-45.07 436.39,-43.27 436.39,-43.27 436.39,-13.81 436.39,-13.81 436.39,-12.01 448.49,-10.54 463.39,-10.54 478.29,-10.54 490.39,-12.01 490.39,-13.81 490.39,-13.81 490.39,-43.27 490.39,-43.27"/>
<path fill="none" stroke="black" d="M490.39,-43.27C490.39,-41.46 478.29,-40 463.39,-40 448.49,-40 436.39,-41.46 436.39,-43.27"/>
<text text-anchor="middle" x="463.39" y="-24.34" font-family="Times,serif" font-size="14.00">DB</text>
</g>
<!-- Chillybin&#45;&gt;DB -->
<g id="edge3" class="edge">
<title>Chillybin&#45;&gt;DB</title>
<path fill="none" stroke="black" d="M227.02,-28.54C277.72,-28.54 373.57,-28.54 425.95,-28.54"/>
<polygon fill="black" stroke="black" points="426.13,-32.04 436.13,-28.54 426.13,-25.04 426.13,-32.04"/>
<text text-anchor="middle" x="331.67" y="-31.34" font-family="Times,serif" font-size="14.00">Existing: UPDATE ingredients</text>
</g>
<!-- Chillybin&#45;&gt;DB -->
<g id="edge4" class="edge">
<title>Chillybin&#45;&gt;DB</title>
<path fill="none" stroke="black" d="M227.12,-14.98C232.98,-13.14 239.08,-11.54 244.96,-10.54 320.95,2.37 342.76,4.33 418.39,-10.54 421.2,-11.09 424.05,-11.83 426.89,-12.68"/>
<polygon fill="black" stroke="black" points="425.79,-16 436.38,-15.97 428.08,-9.39 425.79,-16"/>
<text text-anchor="middle" x="331.67" y="-13.34" font-family="Times,serif" font-size="14.00">New: INSERT orders</text>
</g>
</g>
</svg>
